<?xml version="1.0" standalone="no"?>
<!DOCTYPE svg PUBLIC "-//W3C//DTD SVG 1.1//EN" "http://www.w3.org/Graphics/SVG/1.1/DTD/svg11.dtd">
<svg width="100%" height="100%" viewBox="0 0 51 52" version="1.1" xmlns="http://www.w3.org/2000/svg" xmlns:xlink="http://www.w3.org/1999/xlink" xml:space="preserve" style="fill-rule:evenodd;clip-rule:evenodd;stroke-linecap:round;stroke-linejoin:round;stroke-miterlimit:1.41421;">
    <g>
        <path d="M34.3064,7.62744C36.2958,9.78002 37.5139,12.656 37.5216,15.8165L37.5216,15.8165L37.5216,21.7634L37.5216,21.7634C37.5053,28.4393 32.0885,33.8462 25.4088,33.8462C18.7291,33.8462 13.3122,28.4393 13.296,21.7634L13.296,21.7634L13.296,15.8165L13.296,15.8165C13.311,9.64195 17.9459,4.55303 23.9269,3.82347L38.1681,1.73205L34.3064,7.62744Z" style="fill:none;stroke-width:2px;stroke:white;"/>
        <path d="M38.4142,35.1639L46.9225,38.7615C46.9225,38.7615 49.4913,39.4773 49.6533,41.5111C49.8154,43.5449 49.677,47.36 49.677,47.36C49.677,47.36 49.795,49.8943 47.0207,50.1915C44.2465,50.4886 7.21759,50.4886 4.44335,50.1915C1.66911,49.8943 1.78715,47.36 1.78715,47.36C1.78715,47.36 1.64869,43.5449 1.81076,41.5111C1.97282,39.4773 4.54164,38.7615 4.54164,38.7615L13.0499,35.1639" style="fill:none;stroke-width:2px;stroke:white;"/>
    </g>
</svg>
