<?xml version="1.0" standalone="no"?>
<!DOCTYPE svg PUBLIC "-//W3C//DTD SVG 1.1//EN" "http://www.w3.org/Graphics/SVG/1.1/DTD/svg11.dtd">
<svg width="100%" height="100%" viewBox="0 0 240 240" version="1.1" xmlns="http://www.w3.org/2000/svg" xmlns:xlink="http://www.w3.org/1999/xlink" xml:space="preserve" style="fill-rule:evenodd;clip-rule:evenodd;stroke-linejoin:round;stroke-miterlimit:1.41421;">
    <g>
        <path d="M240,43.7159C240,19.5723 220.428,0 196.284,0L43.7159,0C19.5723,0 -4.54747e-13,19.5723 -4.54747e-13,43.7159L-4.54747e-13,196.284C-4.54747e-13,220.428 19.5723,240 43.7159,240L196.284,240C220.428,240 240,220.428 240,196.284L240,43.7159Z" style="fill:white;"/>
        <g>
            <path d="M149.995,74.3094C146.18,74.3094 142.365,76.169 140.129,79.8995L99.1496,148.276C94.5543,155.943 100.079,165.691 109.016,165.691L189.983,165.691C198.865,165.691 204.396,156.051 199.911,148.381L159.926,80.0041C157.708,76.2114 153.85,74.3094 149.995,74.3094M149.959,92.5043L184.039,150.78L115.033,150.78L149.959,92.5043" style="fill:rgb(153,102,255);fill-rule:nonzero;"/>
            <path d="M51.5428,165.691L132.507,165.691C141.392,165.691 146.92,156.051 142.438,148.381L102.451,80.0041C98.0361,72.4582 87.1497,72.3989 82.6561,79.8995L41.6766,148.276C37.0812,155.943 42.6036,165.691 51.5428,165.691" style="fill:rgb(153,102,255);fill-rule:nonzero;"/>
        </g>
    </g>
</svg>
