<?xml version="1.0" standalone="no"?>
<!DOCTYPE svg PUBLIC "-//W3C//DTD SVG 1.1//EN" "http://www.w3.org/Graphics/SVG/1.1/DTD/svg11.dtd">
<svg width="100%" height="100%" viewBox="0 0 265 100" version="1.1" xmlns="http://www.w3.org/2000/svg" xmlns:xlink="http://www.w3.org/1999/xlink" xml:space="preserve" style="fill-rule:evenodd;clip-rule:evenodd;stroke-linejoin:round;stroke-miterlimit:1.41421;">
    <path d="M249.135,38.1477C243.065,34.8251 235.333,37.2531 231.946,43.4512L221.915,61.7896L211.883,43.4512C211.436,42.6205 210.86,41.7898 210.221,41.087C209.263,39.9368 208.049,38.9145 206.643,38.1477C204.726,37.1254 202.682,36.6142 200.637,36.6781C198.592,36.6781 196.548,37.1254 194.631,38.1477C193.225,38.9145 192.011,39.9368 191.052,41.087C190.413,41.7898 189.902,42.5566 189.391,43.4512L179.423,61.7257L169.519,43.4512C169.072,42.6205 168.497,41.7898 167.858,41.087C166.899,39.9368 165.685,38.9145 164.28,38.1477C162.363,37.1254 160.318,36.6142 158.273,36.6781C156.229,36.6781 154.184,37.1254 152.267,38.1477C150.861,38.9145 149.647,39.9368 148.689,41.087C148.05,41.7898 147.539,42.5566 147.027,43.4512L137.123,61.5979L127.283,43.4512C126.836,42.6205 126.261,41.7898 125.622,41.087C124.663,39.9368 123.449,38.9145 122.044,38.1477C120.127,37.1254 118.082,36.6142 116.037,36.6781C113.993,36.6781 111.948,37.1254 110.031,38.1477C108.625,38.9145 107.411,39.9368 106.453,41.087C105.814,41.7898 105.303,42.5566 104.791,43.4512L94.9513,61.4701L65.1114,6.83818C62.875,2.42929 58.3383,-0.0626976 53.7377,0.00119945C49.1371,-0.0626976 44.6005,2.42929 42.2363,6.77428L1.59778,81.1504C-1.78876,87.3484 0.383738,95.2077 6.45395,98.4665C12.5242,101.789 20.2557,99.361 23.6422,93.163L53.7377,38.0199L83.8332,93.163C84.7278,94.8243 85.9418,96.1662 87.3476,97.2524C87.9226,97.6997 88.4977,98.0831 89.1367,98.4665C90.9258,99.4888 92.9066,99.9361 94.8874,99.9361L95.2708,99.9361C97.2516,99.9361 99.2324,99.4249 101.022,98.4665C101.66,98.0831 102.236,97.6997 102.811,97.2524C104.216,96.1662 105.43,94.8243 106.325,93.163L116.101,75.2719L125.877,93.163C127.794,96.7413 131.181,99.0415 134.887,99.7444C135.015,99.7444 135.143,99.8083 135.27,99.8083C135.526,99.8722 135.781,99.8722 136.037,99.9361C136.229,99.9361 136.42,99.9361 136.612,100L137.89,100C138.082,100 138.273,100 138.465,99.9361C138.721,99.9361 138.976,99.8722 139.232,99.8083C139.36,99.8083 139.488,99.7444 139.615,99.7444C143.257,99.0415 146.644,96.7413 148.625,93.163L158.401,75.2719L168.177,93.163C170.35,97.1885 174.375,99.6166 178.529,99.9361L178.592,99.9361C178.912,99.9361 179.231,100 179.551,100C179.87,100 180.19,100 180.509,99.9361L180.573,99.9361C184.79,99.6166 188.752,97.1885 190.925,93.163L200.701,75.2719L210.477,93.163C212.841,97.508 217.378,100 221.915,99.9361C226.451,100 230.988,97.508 233.352,93.163L253.927,55.3999C257.377,49.2019 255.205,41.4065 249.135,38.1477Z" style="fill:white;"/>
</svg>
